<svg t="1765770146893" class="icon" viewBox="0 0 1063 1024" version="1.1" xmlns="http://www.w3.org/2000/svg" p-id="4416" width="200" height="200"><path d="M33.805227 277.95c0 88.85 47.4 170.9375 124.3375 215.3625s171.7375 44.425 248.6875 0 124.35-126.5125 124.35-215.3625C531.167727 140.6 419.830227 29.2625 282.492727 29.2625 145.142727 29.2625 33.805227 140.6 33.805227 277.95z m0 0" fill="#07B55C" p-id="4417"></path><path d="M282.492727 555.8875c-153.5 0-277.9375-124.4375-277.9375-277.9375S128.992727 0 282.492727 0s277.9375 124.4375 277.9375 277.95c0 153.5-124.4375 277.9375-277.9375 277.9375z m0-497.375c-121.1875 0-219.425 98.2375-219.425 219.425 0 121.1875 98.2375 219.425 219.425 219.425 121.1875 0 219.425-98.2375 219.425-219.425 0-58.2-23.125-114.0125-64.275-155.1625a219.47 219.47 0 0 0-155.15-64.2625z m574.75 537.6c-96.95 0-175.5375-78.6-175.5375-175.5375s78.6-175.5375 175.5375-175.5375c96.95 0 175.5375 78.6 175.5375 175.5375 0 46.5625-18.5 91.2-51.4125 124.125a175.4925 175.4925 0 0 1-124.125 51.4125z m0-292.5625c-64.6375 0-117.025 52.3875-117.025 117.025s52.4 117.025 117.025 117.025c64.6375 0 117.025-52.3875 117.025-117.025 0-31.0375-12.325-60.8125-34.275-82.75a117.01625 117.01625 0 0 0-82.75-34.275zM370.255227 1024c-96.95 0-175.5375-78.6-175.5375-175.5375 0-96.95 78.6-175.5375 175.5375-175.5375 96.95 0 175.5375 78.6 175.5375 175.5375 0 46.5625-18.4875 91.2-51.4125 124.125a175.545 175.545 0 0 1-124.125 51.4125z m0-292.5625c-64.6375 0-117.025 52.3875-117.025 117.025s52.3875 117.025 117.025 117.025 117.025-52.3875 117.025-117.025c0-31.0375-12.325-60.8-34.275-82.75a116.995 116.995 0 0 0-82.75-34.275z m0 0" fill="#191919" p-id="4418"></path><path d="M735.980227 351.0875H531.167727c-16.1625 0-29.25-13.1-29.25-29.2625 0-16.15 13.1-29.25 29.25-29.25h204.8c16.15 0 29.25 13.1 29.25 29.25 0 16.1625-13.0875 29.2625-29.2375 29.2625zM282.492727 746.0625c-7.7625 0-15.2-3.0875-20.6875-8.575a29.255 29.255 0 0 1-8.575-20.6875V526.6375c0-16.1625 13.1-29.2625 29.2625-29.2625s29.2625 13.1 29.2625 29.2625v190.175c0 7.7625-3.0875 15.2-8.575 20.6875a29.3175 29.3175 0 0 1-20.6875 8.5625z m0 0" fill="#191919" p-id="4419"></path></svg>